HIERARCHY
ROOT hip
{
  OFFSET 0.0 0.0 0.0
  CHANNELS 6 Xposition Yposition Zposition Zrotation Yrotation Xrotation
  JOINT torso
  {
    OFFSET 0.0 0.0 0.0
    CHANNELS 3 Zrotation Xrotation Yrotation
    JOINT neck
    {
      OFFSET -31.42098999999993 328.8025209999999 74.3554680000002
      CHANNELS 3 Zrotation Xrotation Yrotation
      JOINT head
      {
        OFFSET 3.3519900000001144 303.81732099999994 206.53942900000015
        CHANNELS 3 Zrotation Xrotation Yrotation
        End Site
        {
          OFFSET 0.0 0.0 0.0
        }
      }
    }
    JOINT left_collar
    {
      OFFSET -31.42098999999993 328.8025209999999 74.3554680000002
      CHANNELS 3 Zrotation Xrotation Yrotation
      JOINT left_upper_arm
      {
        OFFSET -124.490479 -8.162841999999841 8.226441000000023
        CHANNELS 3 Zrotation Xrotation Yrotation
        JOINT left_forearm
        {
          OFFSET -253.595764 -1.5758060000000569 105.0729980000001
          CHANNELS 3 Zrotation Xrotation Yrotation
          JOINT left_hand
          {
            OFFSET -269.48803699999996 0.1478270000000066 -55.346191999999974
            CHANNELS 3 Zrotation Xrotation Yrotation
            End Site
            {
              OFFSET 0.0 0.0 0.0
            }
          }
        }
      }
    }
    JOINT right_collar
    {
      OFFSET -31.42098999999993 328.8025209999999 74.3554680000002
      CHANNELS 3 Zrotation Xrotation Yrotation
      JOINT right_upper_arm
      {
        OFFSET 162.02484099999998 0.46441600000002836 2.2303470000001653
        CHANNELS 3 Zrotation Xrotation Yrotation
        JOINT right_forearm
        {
          OFFSET 240.01246700000004 -25.835875999999985 121.34179699999959
          CHANNELS 3 Zrotation Xrotation Yrotation
          JOINT right_hand
          {
            OFFSET 252.48539699999992 18.910399999999868 -67.53466800000001
            CHANNELS 3 Zrotation Xrotation Yrotation
            End Site
            {
              OFFSET 0.0 0.0 0.0
            }
          }
        }
      }
    }
  }
}
MOTION
Frames: 9
Frame Time: 0.01
-373.3381324334866 221.35015836801765 771.6974090625662 3.8637564413791505 -25.008260858425956 38.08470509100254 -2.1845109528263356 1.6236360549918047 0.6191256454349402 -1.6569121803139912 5.77814306832023 1.0139664061316789 0.0 0.0 0.0 1.792791363218415 0.2527182632195442 -1.6466058703985575 55.66283606974756 27.385345217992384 -4.345509201469427 36.69364429311566 3.4027961557242747 -33.503238967378884 0.0 0.0 0.0 -8.595419921177715 0.496575712282334 5.223433405744765 -17.30158773831703 19.61501292217534 30.02742193655586 -8.072092976288491 -2.134839889177412 24.885696347297117 0.0 0.0 0.0
-373.27686300516245 221.3368969996011 771.7062114771312 3.869455777454603 -25.015046413188962 38.07626143892845 -2.1805243201801483 1.6222569262883368 0.6181738087272601 -1.666535485428924 5.769711799461591 1.0204117221891313 0.0 0.0 0.0 1.7948796819524657 0.2521981002091754 -1.6381597278966749 55.65691826111256 27.38014746383044 -4.342414836741895 36.69771888709937 3.3995370900911257 -33.49224591751269 0.0 0.0 0.0 -8.593473908661494 0.49675703838903607 5.2275372876329005 -17.554692452616802 19.816220131551116 29.948764278767456 -7.884518118755516 -2.1267355975356024 24.826321553671004 0.0 0.0 0.0
-373.23652259569326 221.34072703033053 771.6934548871459 3.873127200886239 -25.018234210067938 38.0651343326418 -2.1738304640016928 1.622245307140362 0.6167549354763227 -1.6769312672984418 5.756346334785226 1.0274618399285314 0.0 0.0 0.0 1.7969123882108013 0.2514246673993294 -1.6266674788525588 55.65111789971343 27.373463107331283 -4.336782664530997 36.703140846246605 3.3960866444998516 -33.48027897809218 0.0 0.0 0.0 -8.591794146481869 0.49709154949035456 5.233536604993172 -17.861390985653014 20.054935718224954 29.84308085807612 -7.667774556118934 -2.1171382075995258 24.76103181960858 0.0 0.0 0.0
-373.2135309110481 221.35829318095662 771.6635970656919 3.875209455478286 -25.018491087495338 38.05203995111204 -2.165064127008411 1.6233356869403168 0.6149829827339838 -1.6877720045846214 5.739110114021935 1.0348823714440725 0.0 0.0 0.0 1.798781107633277 0.25045217768900585 -1.6129021375317376 55.6454262099692 27.36577701071175 -4.329412262512264 36.70896274722938 3.3925060148774295 -33.46780599233782 0.0 0.0 0.0 -8.590451858452198 0.4975465510080696 5.240921972526429 -18.220005208957485 20.328064740138178 29.707965451304943 -7.421013471550532 -2.105949310984238 24.694403302478715 0.0 0.0 0.0
-373.20445944157257 221.38634978946678 771.6209534535149 3.8761220904924154 -25.016466336482562 38.03766049320124 -2.1548374364138057 1.625278873461769 0.6129684318554592 -1.6987539363253097 5.719030674222449 1.0424548892561785 0.0 0.0 0.0 1.8003880264827528 0.24933267182369487 -1.5975982639444846 55.63984748076741 27.357541707189974 -4.32103885464838 36.71433873870273 3.388855865226589 -33.45526141895505 0.0 0.0 0.0 -8.589505879327385 0.49809093449527087 5.2492152100415 -18.628040638230587 20.631917299517045 29.541676315645784 -7.144341737259911 -2.0931461162655776 24.63094787379615 0.0 0.0 0.0
-373.2061199706984 221.4218428738893 771.5695864627775 3.8762562637399953 -25.0127769364853 38.02262966491265 -2.1437258493393925 1.627849066581789 0.6108157861852384 -1.7096031516070889 5.697074674852417 1.0499813718198476 0.0 0.0 0.0 1.8016481581024844 0.24811498045529976 -1.5814371128697071 55.63439809193583 27.349166543667213 -4.312316451502746 36.718544670459444 3.385194528816842 -33.443035080501176 0.0 0.0 0.0 -8.589002276578857 0.4986958151148179 5.257978664048434 -19.082078863527936 20.962201149178263 29.3432891470708 -6.838946396556191 -2.078799277516965 24.574960605492965 0.0 0.0 0.0
-373.21563356449496 221.4619761545527 771.5132162350658 3.875967371521123 -25.00799540825313 38.00752078976194 -2.1322567463048925 1.6308492879021164 0.6086215356368669 -1.720080180116022 5.674127453051897 1.0572876216320375 0.0 0.0 0.0 1.8024913007964256 0.24684387965446342 -1.5650346315029453 55.629104719866866 27.341009264002526 -4.303805685335843 36.72099250964168 3.381576364279338 -33.43146329729806 0.0 0.0 0.0 -8.588974254706434 0.49933503994552614 5.26682256989869 -19.577677599424703 21.314036324115573 29.11284191759728 -6.507168482681472 -2.0630846767192077 24.530346872649364 0.0 0.0 0.0
-373.2304789853418 221.50426003273571 771.4551541606107 3.8755695295533283 -25.00264025505573 37.9928375751335 -2.120900692641772 1.634114838938148 0.606472561275536 -1.7299831516977828 5.6509774977882445 1.0642256824763485 0.0 0.0 0.0 1.8028636708828876 0.24555944139992997 -1.5489322790990516 55.62400194961111 27.333370181800476 -4.295966385982588 36.72123882205465 3.3780503650952793 -33.420822668192514 0.0 0.0 0.0 -8.589442302407107 0.4999855731062586 5.275410527698376 -20.109291054152738 21.681999385575086 28.851462818619233 -6.1525159718083255 -2.046285989294516 24.500436231504846 0.0 0.0 0.0
-373.248520404713 221.54654329810347 771.398259410334 3.8753318714147778 -24.99716887987901 37.97900749615429 -2.110065291095478 1.6375145682425856 0.6044449386759452 -1.7391496317082393 5.628306019313499 1.070675310453141 0.0 0.0 0.0 1.8027291834856995 0.24429657485108683 -1.5335905802473255 55.6191295293852 27.326488975993595 -4.289154749594988 36.71898732728226 3.374659097854135 -33.41132662346782 0.0 0.0 0.0 -8.590414545770022 0.5006277658455763 5.283463198818568 -20.670225131477725 22.06020287037198 28.561469754005362 -5.779609205502488 -2.0287855977948 24.487795703598835 0.0 0.0 0.0
